<?xml version="1.0" standalone="no"?>
<!DOCTYPE svg PUBLIC "-//W3C//DTD SVG 20010904//EN"
 "http://www.w3.org/TR/2001/REC-SVG-20010904/DTD/svg10.dtd">
<svg version="1.0" xmlns="http://www.w3.org/2000/svg"
 width="1920.000000pt" height="1080.000000pt" viewBox="0 0 1920.000000 1080.000000"
 preserveAspectRatio="xMidYMid meet">

<g transform="translate(0.000000,1080.000000) scale(0.100000,-0.100000)"
fill="#000000" stroke="none">
<path d="M10553 9158 c-80 -67 -133 -123 -133 -140 0 -9 9 -23 21 -31 20 -14
17 -21 -130 -315 -358 -716 -778 -1632 -1196 -2609 l-168 -393 -893 0 c-492 0
-894 3 -894 6 0 28 535 1243 730 1659 149 317 245 529 276 613 14 35 46 96 73
135 169 254 391 680 391 754 0 29 -27 60 -57 66 -15 3 -56 0 -91 -6 l-62 -12
-81 -170 c-505 -1061 -1120 -2424 -1349 -2987 l-24 -58 -1443 0 -1443 0 16 38
c59 134 145 359 160 415 21 78 15 97 -35 111 -24 7 -41 5 -65 -6 -27 -13 -40
-34 -85 -134 -79 -175 -201 -415 -215 -420 -6 -2 -147 -3 -313 -2 l-302 3 19
45 c256 607 501 1161 743 1680 173 372 267 583 267 601 0 5 43 76 95 158 175
275 336 588 352 684 11 69 -39 92 -160 73 l-48 -7 -50 -107 c-616 -1306 -1081
-2336 -1379 -3054 l-32 -78 -263 0 c-263 0 -297 -4 -328 -35 -21 -21 -22 -61
-1 -69 9 -3 135 -6 280 -6 145 0 264 -2 264 -4 0 -3 -31 -83 -68 -178 -38 -95
-93 -239 -122 -320 -51 -141 -55 -148 -99 -179 -25 -18 -107 -94 -183 -168
-76 -73 -141 -131 -144 -128 -7 7 72 196 155 371 34 71 61 134 61 141 0 26
-46 55 -87 55 -36 0 -47 -6 -105 -64 -36 -35 -71 -78 -78 -95 -13 -32 -24 -39
-35 -21 -18 29 -93 53 -180 58 l-90 4 -80 -60 c-44 -33 -118 -96 -165 -140
l-85 -79 47 141 c60 181 138 447 138 473 0 26 -18 41 -59 49 -24 5 -40 1 -69
-18 -36 -25 -40 -33 -110 -244 -130 -391 -245 -665 -339 -807 -43 -64 -48 -69
-51 -46 -2 15 20 176 47 359 53 349 59 408 39 428 -19 19 -114 15 -157 -8 -66
-33 -125 -120 -177 -262 -16 -43 -35 -78 -42 -78 -8 0 -10 8 -7 23 29 127 35
157 35 188 0 49 -17 61 -86 57 -53 -3 -60 -6 -80 -35 -40 -59 -95 -342 -98
-502 -1 -72 0 -74 34 -102 30 -25 43 -29 96 -29 60 0 62 1 117 53 38 37 60 69
73 105 22 61 39 69 30 15 -11 -74 -19 -270 -12 -307 12 -65 32 -76 141 -76
112 0 149 14 211 82 34 37 57 70 122 177 l14 23 11 -22 c26 -51 61 -65 166
-65 91 0 102 3 163 34 57 28 119 74 259 189 l28 24 -6 -54 c-5 -48 -3 -55 21
-78 22 -20 40 -25 96 -28 58 -4 77 0 126 22 62 29 144 86 208 145 l39 36 -8
-30 c-49 -199 -59 -362 -27 -425 59 -118 277 -83 494 81 37 27 104 85 148 127
44 42 80 74 80 71 0 -3 -286 -676 -635 -1495 -350 -819 -634 -1498 -633 -1509
4 -27 44 -45 103 -45 47 0 51 2 110 62 38 40 75 93 102 145 43 84 46 115 13
135 -15 9 37 137 475 1157 521 1216 908 2124 1049 2461 l85 205 1450 3 1451 2
-21 -52 c-154 -383 -298 -793 -344 -978 -36 -142 -45 -329 -18 -380 48 -92
199 -92 371 0 131 71 250 172 398 339 l93 105 98 -3 c95 -2 100 -1 168 33 73
37 131 86 202 171 23 27 45 46 49 42 4 -4 -1 -33 -11 -65 -22 -69 -31 -226
-16 -264 18 -47 65 -68 152 -68 41 0 100 7 130 16 69 20 191 82 276 139 37 24
68 43 70 41 2 -2 -46 -129 -108 -282 -135 -340 -350 -887 -470 -1202 -87 -228
-89 -234 -74 -267 14 -36 23 -39 90 -35 17 0 37 3 46 6 9 2 56 96 114 227 247
558 473 1005 708 1400 61 103 72 117 84 104 18 -18 32 -78 33 -140 0 -101 102
-242 214 -297 86 -42 167 -49 274 -22 178 45 347 153 610 390 50 46 92 80 92
77 0 -4 -175 -418 -390 -920 -214 -503 -390 -919 -390 -925 0 -16 100 -12 148
7 37 14 48 25 71 72 46 90 1061 2467 1139 2666 l20 50 2332 3 c2319 2 2332 2
2360 -18 25 -18 44 -20 177 -20 160 0 265 13 301 36 16 11 22 24 22 53 0 39 0
39 -50 50 -36 8 -799 11 -2566 11 l-2514 0 16 38 c52 119 146 363 160 415 21
82 14 104 -35 112 -73 12 -88 -4 -174 -192 -43 -92 -101 -213 -130 -268 l-52
-100 -700 -5 c-385 -3 -708 -3 -717 -1 -10 2 -18 7 -18 13 0 12 147 362 293
698 252 581 496 1104 868 1863 423 860 452 926 418 948 -8 5 -40 9 -71 9 -50
0 -62 -4 -95 -32z m-6737 -3630 c-7 -18 -64 -152 -125 -298 -62 -146 -119
-269 -128 -275 -8 -5 -92 -98 -186 -205 -297 -338 -499 -530 -558 -530 -11 0
-22 13 -29 36 -34 103 87 503 366 1207 l38 97 318 0 318 0 -14 -32z m4894 12
c19 -15 41 -20 98 -20 39 0 72 -3 72 -6 0 -11 -232 -569 -245 -590 -23 -37
-525 -364 -557 -364 -17 0 1 106 39 230 19 63 72 210 119 326 46 117 84 220
84 231 0 31 -21 43 -71 43 -47 0 -48 -1 -136 -95 -96 -104 -92 -102 -201 -83
-63 11 -75 10 -139 -11 -39 -13 -100 -41 -135 -64 -87 -56 -197 -170 -235
-242 -57 -108 -483 -571 -598 -650 -134 -92 -145 13 -40 373 52 179 226 656
330 906 l15 36 788 0 c766 0 788 -1 812 -20z m1821 -12 c-23 -58 -237 -554
-244 -565 -5 -7 -16 -13 -25 -13 -8 0 -95 -78 -191 -173 -368 -363 -609 -537
-743 -537 -48 0 -54 3 -93 44 -76 79 -120 195 -131 347 l-7 86 63 7 c87 10
215 51 275 89 171 107 322 242 366 330 30 58 38 165 14 200 -30 46 -86 59
-237 55 -128 -3 -136 -5 -201 -37 -131 -66 -313 -238 -506 -481 -45 -55 -81
-97 -81 -93 0 7 230 602 272 703 24 57 32 57 795 59 l683 1 -9 -22z m-891
-270 c0 -92 -274 -354 -420 -403 -50 -17 -160 -36 -160 -28 0 14 109 143 194
230 110 114 207 186 288 214 80 28 98 26 98 -13z m-1771 -197 c29 -18 -34 -88
-257 -284 -71 -62 -81 -44 -31 56 67 133 171 237 239 237 19 0 41 -4 49 -9z
m-5729 -161 c22 -11 48 -20 60 -20 11 0 20 -4 20 -9 0 -5 -78 -87 -172 -183
-164 -165 -298 -274 -306 -248 -8 22 31 117 76 185 38 57 263 295 279 295 2 0
21 -9 43 -20z"/>
<path d="M4861 5341 c-20 -32 -70 -130 -109 -217 -114 -253 -106 -240 -215
-325 -115 -90 -275 -186 -371 -224 -70 -27 -176 -45 -176 -29 0 22 25 97 62
186 l40 96 121 42 c234 80 347 151 347 219 0 111 -120 158 -284 111 -65 -18
-74 -25 -191 -139 -67 -65 -141 -131 -164 -146 -45 -30 -46 -34 -30 -79 10
-28 7 -37 -25 -91 -88 -144 -86 -263 3 -298 30 -12 72 -17 150 -17 167 0 293
39 442 135 39 25 69 40 66 33 -2 -7 -41 -105 -86 -217 -45 -112 -81 -211 -79
-219 6 -33 125 -44 154 -14 32 32 265 550 434 965 18 44 29 57 44 57 27 0 159
-19 163 -24 2 -1 -32 -79 -75 -172 -94 -203 -140 -320 -148 -377 -9 -61 16
-114 60 -132 41 -17 154 -20 207 -5 93 26 254 166 398 345 62 78 71 95 69 125
l-3 35 -74 0 -73 0 -57 -65 c-146 -170 -321 -334 -337 -317 -4 3 34 102 84
219 106 247 142 341 142 367 0 13 -21 29 -75 54 -100 48 -209 112 -249 148
-27 23 -43 29 -80 29 -46 0 -47 -1 -85 -59z m-538 -283 c-23 -23 -45 -39 -49
-35 -9 9 15 36 51 59 45 27 44 22 -2 -24z"/>
<path d="M11333 5295 c-96 -104 -92 -102 -201 -83 -63 11 -75 10 -139 -11 -92
-30 -180 -87 -269 -175 -89 -89 -132 -172 -145 -280 -16 -129 10 -156 152
-156 79 0 92 3 155 35 72 36 130 85 201 170 23 27 45 46 49 42 4 -4 -1 -33
-11 -65 -22 -69 -31 -226 -16 -264 6 -16 25 -37 43 -49 29 -17 45 -20 128 -16
105 4 175 27 299 97 l66 38 3 -37 c6 -84 1 -81 108 -81 l96 0 53 54 c66 69
214 245 375 446 113 143 140 172 140 155 0 -3 -27 -70 -61 -148 -143 -333
-179 -439 -182 -537 l-2 -73 30 -9 c17 -6 71 -10 120 -10 70 -1 100 4 138 20
66 30 150 88 232 163 l70 63 2 -49 c6 -105 13 -134 44 -165 30 -29 33 -30 130
-30 94 0 103 2 143 29 55 38 114 104 122 136 5 22 12 25 48 25 132 0 329 89
454 204 35 32 45 37 53 25 16 -25 69 -179 75 -217 5 -35 3 -38 -33 -58 -124
-70 -203 -154 -203 -216 l0 -38 88 0 c146 0 232 39 273 124 19 38 27 44 102
70 216 75 446 215 655 396 29 25 52 53 52 62 0 30 -29 48 -79 48 -44 0 -56 -6
-162 -86 -227 -171 -406 -277 -490 -290 l-34 -5 -22 93 c-13 51 -40 128 -62
171 -30 60 -36 79 -26 85 30 16 180 158 216 205 32 40 39 57 39 94 0 101 -60
138 -212 131 -136 -6 -194 -45 -251 -167 -41 -87 -46 -154 -17 -211 l23 -44
-49 -45 c-113 -102 -322 -237 -340 -218 -3 3 8 69 24 146 29 136 29 144 15
199 -19 73 -47 118 -86 138 -27 14 -40 15 -105 3 l-75 -12 -85 -84 c-46 -46
-87 -83 -92 -83 -4 0 -81 -70 -171 -157 -226 -216 -342 -314 -354 -301 -3 2
32 92 76 199 151 363 189 502 154 568 -21 42 -56 54 -131 46 -108 -11 -219
-96 -370 -281 -71 -88 -106 -118 -89 -76 27 63 10 101 -51 109 -38 5 -42 3
-85 -48 -25 -30 -64 -80 -88 -111 -30 -42 -69 -76 -144 -126 -124 -84 -336
-212 -349 -212 -17 0 1 106 39 230 19 63 72 210 119 326 46 117 84 220 84 231
0 31 -21 43 -71 43 -47 0 -48 -1 -136 -95z m2647 -80 c0 -23 -48 -91 -92 -129
-59 -52 -68 -55 -68 -26 0 41 40 101 87 131 43 27 73 37 73 24z m-2891 -154
c29 -18 -34 -88 -257 -284 -71 -62 -81 -44 -31 56 67 133 171 237 239 237 19
0 41 -4 49 -9z m2101 -151 c0 -22 -4 -40 -10 -40 -5 0 -10 18 -10 40 0 22 5
40 10 40 6 0 10 -18 10 -40z m-20 -110 c0 -22 -4 -40 -10 -40 -5 0 -10 18 -10
40 0 22 5 40 10 40 6 0 10 -18 10 -40z m-123 -212 c21 -23 3 -67 -44 -108 -61
-54 -67 -46 -59 85 4 64 9 122 13 131 4 10 16 -1 40 -38 19 -29 42 -61 50 -70z"/>
<path d="M13103 3751 c-65 -22 -114 -59 -153 -115 -50 -73 -60 -135 -60 -362
l0 -202 -192 -4 c-188 -3 -194 -4 -250 -31 -71 -35 -131 -101 -158 -174 -20
-54 -21 -71 -18 -592 l3 -536 24 -47 c30 -61 89 -120 149 -150 44 -22 61 -23
257 -26 l210 -2 -40 32 c-22 18 -60 52 -85 74 l-45 42 -100 4 c-114 4 -154 20
-192 78 l-23 33 0 517 0 517 23 33 c37 55 78 70 191 70 l99 0 68 64 c37 36
106 88 153 117 l86 52 0 172 c0 160 2 175 23 215 41 78 52 80 367 80 315 0
326 -2 367 -80 21 -40 23 -55 23 -215 l0 -172 86 -52 c47 -29 116 -81 153
-117 l68 -64 99 0 c113 0 154 -15 192 -70 l22 -33 0 -517 0 -517 -23 -33 c-38
-58 -78 -74 -192 -78 l-100 -4 -45 -42 c-25 -22 -63 -56 -85 -74 l-40 -32 210
2 c196 3 213 4 257 26 60 30 119 89 149 150 l24 47 3 536 c3 521 2 538 -18
592 -27 73 -87 139 -158 174 -56 27 -62 28 -249 31 l-193 4 0 202 c0 227 -10
289 -61 362 -17 25 -49 58 -72 75 -74 54 -112 59 -421 59 -243 -1 -288 -3
-333 -19z"/>
<path d="M13195 3535 c-67 -36 -95 -80 -95 -150 0 -62 21 -107 66 -141 l37
-29 237 0 237 0 37 29 c89 68 89 204 0 272 l-37 29 -226 3 c-191 2 -231 0
-256 -13z"/>
<path d="M13326 3139 c-82 -11 -233 -60 -296 -96 -497 -284 -599 -936 -211
-1347 292 -308 776 -352 1124 -102 423 302 475 924 108 1294 -188 191 -464
287 -725 251z m252 -164 c238 -47 449 -235 528 -470 38 -115 44 -260 15 -375
-81 -325 -352 -540 -681 -540 -329 0 -600 215 -681 540 -29 115 -23 260 15
375 60 177 191 328 358 409 148 73 289 92 446 61z"/>
<path d="M13308 2834 c-236 -57 -411 -265 -426 -506 -10 -175 42 -315 162
-433 116 -115 235 -165 396 -165 161 0 280 50 396 165 120 118 172 259 161
433 -6 104 -32 180 -94 274 -126 192 -370 287 -595 232z m258 -263 c62 -28
118 -81 152 -146 23 -43 27 -62 27 -135 0 -99 -23 -158 -86 -221 -67 -67 -111
-84 -219 -84 -80 0 -102 4 -138 23 -58 31 -114 88 -143 148 -34 69 -34 198 0
264 80 154 253 219 407 151z"/>
<path d="M4090 2485 l0 -635 54 0 55 0 3 253 3 252 30 53 c67 122 214 164 332
96 31 -18 49 -39 70 -81 l28 -58 3 -257 3 -258 55 0 54 0 0 253 c0 276 -7 325
-57 405 -37 59 -94 98 -173 118 -114 29 -218 3 -304 -76 l-46 -43 0 307 0 306
-55 0 -55 0 0 -635z"/>
<path d="M10500 2485 l0 -635 54 0 55 0 3 253 3 252 30 53 c67 122 214 164
332 96 31 -18 49 -39 70 -81 l28 -58 3 -257 3 -258 55 0 54 0 0 253 c0 276 -7
325 -57 405 -37 59 -94 98 -173 118 -114 29 -218 3 -304 -76 l-46 -43 0 307 0
306 -55 0 -55 0 0 -635z"/>
<path d="M6010 2785 l0 -165 -70 0 -70 0 0 -50 0 -50 70 0 70 0 0 -335 0 -335
55 0 55 0 0 335 0 335 70 0 70 0 0 50 0 50 -70 0 -70 0 0 165 0 165 -55 0 -55
0 0 -165z"/>
<path d="M7944 2639 l-61 -61 -39 20 c-219 112 -484 -35 -502 -277 -5 -81 14
-157 57 -222 l30 -44 -26 -24 c-14 -13 -37 -49 -51 -79 -20 -45 -24 -64 -19
-109 3 -30 12 -64 20 -76 12 -18 10 -26 -15 -71 -108 -196 90 -379 392 -363
161 9 269 64 322 166 62 118 15 256 -104 305 -66 28 -134 28 -280 3 -75 -14
-148 -22 -163 -20 -14 3 -35 17 -46 32 -28 35 -23 114 10 160 22 30 24 31 45
17 34 -22 124 -46 172 -46 23 0 71 9 107 20 84 26 164 96 204 178 24 50 28 69
28 147 0 80 -3 97 -29 148 l-30 58 59 59 60 60 -40 40 -40 40 -61 -61z m-133
-134 c146 -102 128 -368 -28 -437 -102 -45 -220 -13 -280 75 -92 137 -44 327
97 386 14 6 57 10 97 8 61 -2 78 -7 114 -32z m89 -793 c45 -22 73 -75 64 -122
-9 -52 -41 -90 -103 -119 -50 -23 -68 -26 -166 -26 -93 0 -118 4 -161 23 -79
36 -116 80 -121 144 -6 75 8 91 67 77 47 -11 130 -2 255 26 84 18 124 18 165
-3z"/>
<path d="M8940 2637 c-25 -7 -61 -21 -81 -31 -41 -19 -119 -83 -119 -96 0 -5
18 -23 40 -40 l40 -32 41 36 c124 106 311 81 370 -49 23 -51 26 -140 4 -131
-37 14 -197 28 -265 23 -107 -8 -164 -31 -226 -91 -55 -54 -74 -98 -74 -171 1
-73 54 -156 123 -191 118 -62 337 -20 426 81 l28 33 17 -39 c21 -47 64 -79
116 -86 l40 -6 0 57 c0 48 -3 56 -19 56 -10 0 -23 6 -29 13 -6 7 -12 100 -14
232 -3 204 -5 224 -26 271 -29 64 -82 116 -146 145 -60 26 -182 34 -246 16z
m250 -427 c30 -6 56 -12 59 -15 13 -14 -34 -121 -72 -162 -57 -61 -107 -85
-193 -91 -84 -5 -130 8 -168 47 -64 67 -14 189 92 221 39 12 220 12 282 0z"/>
<path d="M3467 2630 c-53 -14 -92 -35 -138 -77 l-39 -35 0 51 0 51 -55 0 -55
0 0 -595 0 -595 55 0 55 0 0 261 0 261 41 -37 c64 -57 121 -79 209 -79 176 0
308 123 341 318 19 113 -3 241 -57 327 -33 53 -109 115 -162 134 -60 20 -146
27 -195 15z m160 -119 c88 -45 135 -128 141 -252 7 -140 -38 -239 -135 -296
-85 -49 -204 -33 -270 39 -49 52 -67 115 -67 233 -1 99 2 116 25 166 58 122
190 170 306 110z"/>
<path d="M5255 2627 c-113 -38 -195 -109 -246 -213 -27 -54 -33 -81 -37 -148
-7 -138 38 -250 134 -335 232 -204 584 -69 636 243 29 173 -64 353 -220 427
-77 37 -198 48 -267 26z m235 -123 c91 -50 140 -141 140 -262 0 -93 -22 -160
-70 -215 -56 -63 -113 -89 -198 -89 -163 -1 -276 118 -276 292 -1 103 24 171
84 231 84 84 213 101 320 43z"/>
<path d="M6665 2627 c-113 -38 -195 -109 -246 -213 -27 -54 -33 -81 -37 -148
-7 -138 38 -250 134 -335 232 -204 584 -69 636 243 29 173 -64 353 -220 427
-77 37 -198 48 -267 26z m235 -123 c91 -50 140 -141 140 -262 0 -93 -22 -160
-70 -215 -56 -63 -113 -89 -198 -89 -163 -1 -276 118 -276 292 -1 103 24 171
84 231 84 84 213 101 320 43z"/>
<path d="M8490 2625 c-25 -8 -62 -30 -83 -48 l-37 -35 0 39 0 39 -55 0 -55 0
0 -385 0 -385 55 0 55 0 0 239 c0 199 3 248 17 292 23 69 76 124 140 142 l48
14 3 52 c3 48 2 51 -20 50 -13 0 -43 -7 -68 -14z"/>
<path d="M9877 2630 c-53 -14 -92 -35 -138 -77 l-39 -35 0 51 0 51 -55 0 -55
0 0 -595 0 -595 55 0 55 0 0 261 0 261 41 -37 c64 -57 121 -79 209 -79 176 0
308 123 341 318 19 113 -3 241 -57 327 -33 53 -109 115 -162 134 -60 20 -146
27 -195 15z m160 -119 c88 -45 135 -128 141 -252 7 -140 -38 -239 -135 -296
-85 -49 -204 -33 -270 39 -49 52 -67 115 -67 233 -1 99 2 116 25 166 58 122
190 170 306 110z"/>
<path d="M11350 2616 c0 -2 69 -171 154 -375 l154 -372 -114 -257 -114 -257
61 -3 c34 -2 62 -2 64 0 2 3 396 887 521 1171 l43 98 -66 -3 -66 -3 -133 -299
-132 -300 -14 35 c-8 18 -64 154 -124 301 l-109 268 -62 0 c-35 0 -63 -2 -63
-4z"/>
</g>
</svg>
